<?xml version="1.0" standalone="no"?>
<!DOCTYPE svg PUBLIC "-//W3C//DTD SVG 20010904//EN"
 "http://www.w3.org/TR/2001/REC-SVG-20010904/DTD/svg10.dtd">
<svg version="1.0" xmlns="http://www.w3.org/2000/svg"
 width="250.000000pt" height="250.000000pt" viewBox="0 0 250.000000 250.000000"
 preserveAspectRatio="xMidYMid meet">

<g transform="translate(0.000000,250.000000) scale(0.100000,-0.100000)"
fill="#000000" stroke="none">
<path d="M1130 2236 c-221 -47 -401 -181 -497 -369 -59 -118 -82 -317 -50
-447 l13 -55 6 120 c6 123 28 216 70 299 32 62 113 141 170 166 155 67 314 12
492 -168 67 -69 83 -80 112 -80 34 0 34 0 34 49 0 48 12 65 24 33 3 -9 6 -31
6 -49 0 -81 39 -110 80 -58 19 25 21 35 14 113 -5 72 -4 88 10 99 13 11 17 10
25 -11 5 -14 12 -46 16 -71 4 -26 11 -47 15 -47 4 0 12 19 19 41 l13 42 23
-49 c12 -27 30 -58 39 -69 16 -20 16 -20 31 -1 8 11 18 17 21 13 4 -4 13 -2
21 4 16 14 17 65 2 126 -10 37 -9 47 2 54 12 8 12 11 -1 22 -8 6 -35 38 -59
70 -44 58 -135 133 -201 167 -117 60 -316 84 -450 56z"/>
<path d="M701 1734 c0 -11 3 -14 6 -6 3 7 2 16 -1 19 -3 4 -6 -2 -5 -13z"/>
<path d="M1913 1495 c0 -22 2 -30 4 -17 2 12 2 30 0 40 -3 9 -5 -1 -4 -23z"/>
<path d="M1897 1411 c-21 -124 -120 -284 -221 -358 -75 -55 -113 -75 -202
-105 -59 -19 -89 -23 -209 -23 -119 0 -151 4 -215 23 -199 63 -324 169 -396
338 -20 47 -24 52 -20 24 19 -116 148 -272 281 -342 112 -58 210 -82 345 -82
134 0 208 16 318 70 91 44 193 139 245 225 42 71 91 214 85 250 -3 17 -6 11
-11 -20z"/>
<path d="M621 1364 c0 -11 3 -14 6 -6 3 7 2 16 -1 19 -3 4 -6 -2 -5 -13z"/>
<path d="M2233 789 c-18 -5 -35 -14 -38 -19 -4 -6 3 -6 20 0 44 17 75 12 101
-17 20 -22 25 -36 22 -65 -2 -21 0 -38 4 -38 5 0 8 21 8 48 0 35 -5 52 -19 64
-20 17 -57 39 -63 37 -2 0 -17 -5 -35 -10z"/>
<path d="M2223 733 c-15 -6 -17 -69 -3 -78 6 -3 10 3 10 14 0 12 6 21 13 21 8
0 8 3 -2 9 -8 5 -11 16 -8 25 4 9 5 16 4 15 -1 0 -8 -3 -14 -6z"/>
<path d="M2267 699 c3 -52 13 -65 13 -16 0 21 0 40 1 44 0 4 -3 9 -8 10 -5 2
-8 -15 -6 -38z"/>
<path d="M2153 687 c1 -42 5 -52 34 -78 23 -20 44 -29 67 -29 34 0 86 32 86
52 0 7 -10 2 -22 -9 -34 -30 -55 -34 -92 -19 -38 16 -63 51 -69 97 -3 24 -4
20 -4 -14z"/>
<path d="M440 690 c0 -5 7 -10 15 -10 12 0 15 -19 15 -109 0 -88 -3 -110 -15
-115 -23 -8 -19 -46 5 -46 19 0 20 7 20 145 0 138 -1 145 -20 145 -11 0 -20
-4 -20 -10z"/>
<path d="M1017 686 c-48 -18 -71 -38 -92 -83 -20 -42 -13 -56 9 -16 l15 28 1
-25 c0 -21 3 -19 19 17 22 48 45 63 98 63 47 0 80 -22 99 -64 13 -30 13 -30
14 -6 l1 25 14 -25 c10 -17 14 -20 15 -9 0 9 -9 28 -21 43 -41 52 -112 73
-172 52z"/>
<path d="M205 680 c-4 -7 1 -13 14 -17 11 -3 18 -9 15 -14 -3 -5 0 -17 5 -26
9 -15 10 -13 11 15 0 27 4 32 24 32 14 0 32 -7 40 -16 10 -10 16 -11 16 -3 0
8 4 8 16 -2 14 -12 14 -14 0 -25 -9 -6 -16 -18 -16 -27 0 -9 -6 -19 -12 -24
-17 -10 -71 -4 -79 9 -4 5 -7 -12 -7 -39 -1 -26 3 -55 8 -63 7 -11 10 -3 10
28 0 37 3 42 24 42 13 0 35 -9 48 -20 14 -10 28 -17 31 -13 4 3 9 -2 13 -11
10 -27 -43 -76 -82 -76 -20 0 -37 6 -42 17 -12 21 -42 10 -42 -17 0 -18 6 -20
70 -20 62 0 74 3 95 25 31 30 32 59 1 89 -31 31 -40 56 -20 56 8 0 19 12 25
27 8 23 6 30 -15 52 -20 19 -38 26 -84 29 -39 3 -62 0 -67 -8z"/>
<path d="M1308 569 c-86 -64 -30 -185 77 -165 21 4 35 13 35 21 0 11 -6 12
-26 5 -14 -6 -29 -10 -34 -10 -17 0 -80 65 -80 82 0 21 17 32 23 16 4 -9 6 -7
6 3 2 30 38 52 76 46 35 -6 48 6 19 17 -30 11 -69 5 -96 -15z"/>
<path d="M1492 565 c-55 -46 -49 -122 12 -151 40 -20 93 -13 128 15 34 28 19
32 -30 10 -50 -23 -77 -18 -109 20 -24 28 -29 56 -13 66 6 3 10 -1 10 -9 0
-13 14 -16 80 -16 44 0 80 2 80 5 0 19 -29 59 -51 71 -41 21 -74 17 -107 -11z
m99 -8 c28 -21 10 -37 -42 -37 -34 0 -49 4 -49 13 0 34 58 49 91 24z"/>
<path d="M1733 578 c-12 -6 -30 -30 -39 -54 -16 -41 -15 -45 3 -76 26 -44 65
-58 104 -36 16 10 29 13 29 8 0 -6 11 -10 25 -10 25 0 25 1 25 85 0 78 -2 85
-20 85 -12 0 -20 -7 -20 -17 0 -14 -3 -13 -20 5 -22 24 -52 27 -87 10z m91
-35 c11 -20 15 -23 16 -10 0 9 6 17 14 17 11 0 14 -12 13 -45 -1 -30 -6 -45
-15 -45 -8 0 -25 -9 -39 -20 -14 -11 -32 -20 -39 -20 -20 0 -74 63 -74 87 0
26 20 42 20 16 1 -11 6 -5 15 15 11 26 20 32 44 32 23 0 34 -7 45 -27z"/>
<path d="M1991 569 c-17 -19 -21 -20 -21 -6 0 9 -7 17 -15 17 -8 0 -15 -7 -15
-15 0 -8 7 -15 15 -15 11 0 15 -12 15 -45 0 -33 -4 -45 -15 -45 -9 0 -15 -9
-15 -25 0 -18 5 -25 20 -25 18 0 20 7 20 64 0 45 5 69 16 80 20 21 53 20 77
-1 15 -13 18 -14 12 -3 -7 13 -6 13 7 2 20 -16 29 -92 11 -92 -7 0 -13 -4 -13
-9 0 -5 -3 -16 -6 -25 -4 -11 0 -16 14 -16 15 0 21 9 25 38 8 49 1 103 -16
120 -8 7 -32 16 -54 19 -33 4 -44 1 -62 -18z"/>
<path d="M550 565 c0 -8 6 -15 14 -15 9 0 16 -13 19 -32 3 -25 4 -22 5 15 2
41 -1 47 -18 47 -11 0 -20 -7 -20 -15z"/>
<path d="M690 570 c0 -6 7 -13 15 -16 8 -4 15 -15 15 -25 0 -30 -40 -98 -62
-104 -25 -8 -68 2 -68 16 0 14 -40 65 -41 53 -1 -5 0 -18 1 -29 7 -72 138 -87
169 -19 6 14 11 49 11 79 0 48 -2 55 -20 55 -11 0 -20 -5 -20 -10z"/>
<path d="M1206 545 c-4 -14 -11 -23 -16 -20 -6 3 -10 -1 -10 -9 0 -8 -14 -31
-31 -51 -28 -31 -36 -35 -81 -35 -53 0 -62 7 -130 91 l-28 33 0 -27 c0 -37 62
-104 110 -118 54 -16 105 -4 150 38 33 29 60 81 60 116 0 18 -18 4 -24 -18z"/>
<path d="M1305 329 c142 -11 895 -11 895 1 0 7 -170 9 -492 8 -298 -1 -457 -4
-403 -9z"/>
<path d="M1455 208 c-3 -24 -9 -51 -12 -62 -3 -11 -1 -16 5 -12 11 6 27 104
19 112 -3 3 -8 -14 -12 -38z"/>
<path d="M1641 250 c-1 -3 -4 -23 -7 -45 -4 -22 -11 -48 -16 -59 -8 -14 -7
-17 3 -14 14 5 32 82 25 108 -2 8 -4 13 -5 10z"/>
<path d="M1683 201 c0 -28 1 -35 4 -16 2 17 11 35 19 41 12 10 12 12 -4 16
-16 5 -18 -1 -19 -41z"/>
<path d="M1891 192 c2 -58 4 -62 25 -62 13 0 24 5 24 11 0 6 -8 9 -18 7 -16
-5 -19 2 -21 46 -1 28 -4 53 -7 55 -3 3 -4 -23 -3 -57z"/>
<path d="M1228 185 c-1 -30 0 -55 5 -55 4 0 7 25 7 55 0 71 -7 71 -12 0z"/>
<path d="M1277 226 c-3 -8 -2 -27 2 -43 4 -15 6 -34 4 -40 -6 -16 43 -18 52
-3 4 7 -2 9 -17 5 -19 -5 -24 -2 -25 14 -1 15 4 21 18 21 10 0 19 4 19 9 0 5
-9 7 -19 4 -26 -7 -22 28 5 38 16 6 15 8 -7 8 -15 1 -29 -5 -32 -13z"/>
<path d="M1787 222 c-2 -11 -1 -37 3 -58 4 -21 8 -29 9 -16 0 12 5 22 9 22 5
0 9 6 9 14 0 8 -6 12 -14 9 -16 -6 -6 27 11 39 7 5 5 8 -5 8 -9 0 -19 -8 -22
-18z"/>
<path d="M1971 185 c2 -58 11 -66 50 -45 14 8 19 20 18 48 l-2 37 -6 -34 c-4
-21 -14 -37 -27 -41 -18 -7 -20 -4 -22 30 -2 28 2 41 15 49 16 9 16 10 -5 11
-21 0 -22 -4 -21 -55z"/>
<path d="M1026 208 c-3 -7 -7 -29 -10 -48 -5 -31 -4 -33 8 -17 7 9 21 17 30
17 10 0 14 5 11 10 -4 6 -10 8 -15 5 -5 -3 -11 -1 -15 5 -3 6 1 13 9 16 9 3
13 10 10 15 -8 13 -24 11 -28 -3z"/>
<path d="M1166 207 c3 -10 9 -15 12 -12 3 3 0 11 -7 18 -10 9 -11 8 -5 -6z"/>
<path d="M1392 179 c-11 -43 -8 -69 3 -33 4 10 10 26 15 35 4 9 5 21 1 28 -5
8 -12 -3 -19 -30z"/>
<path d="M1541 200 c14 -31 19 -36 19 -24 0 6 -7 19 -16 30 -14 18 -14 18 -3
-6z"/>
<path d="M1577 213 c-4 -3 -7 -18 -7 -33 0 -14 -6 -32 -12 -39 -11 -11 -10
-13 2 -9 8 3 16 17 18 31 2 15 7 25 12 22 4 -3 6 4 3 15 -6 22 -7 23 -16 13z"/>
<path d="M1836 204 c-9 -24 -7 -28 9 -14 17 14 20 30 6 30 -5 0 -12 -7 -15
-16z"/>
<path d="M1747 181 c-4 -20 -15 -32 -34 -39 -24 -9 -25 -11 -6 -11 28 -1 53
24 53 55 0 33 -6 30 -13 -5z"/>
<path d="M1167 151 c-4 -17 -3 -21 5 -13 5 5 8 16 6 23 -3 8 -7 3 -11 -10z"/>
<path d="M1845 140 c-3 -5 -1 -10 4 -10 6 0 11 5 11 10 0 6 -2 10 -4 10 -3 0
-8 -4 -11 -10z"/>
</g>
</svg>
