<?xml version="1.0" standalone="no"?>
<!DOCTYPE svg PUBLIC "-//W3C//DTD SVG 20010904//EN"
 "http://www.w3.org/TR/2001/REC-SVG-20010904/DTD/svg10.dtd">
<svg version="1.0" xmlns="http://www.w3.org/2000/svg"
 width="500.000000pt" height="311.000000pt" viewBox="0 0 500.000000 311.000000"
 preserveAspectRatio="xMidYMid meet">

<g transform="translate(0.000000,311.000000) scale(0.100000,-0.100000)"
fill="#000000" stroke="none">
<path d="M2139 3100 c-125 -22 -353 -149 -342 -190 4 -13 3 -13 -5 -1 -8 12
-19 7 -60 -27 -69 -58 -202 -218 -202 -244 0 -4 20 -8 45 -8 54 0 95 -33 95
-76 0 -15 -26 -105 -57 -201 -35 -106 -53 -177 -47 -182 5 -5 29 -12 53 -16
l43 -7 -7 32 c-18 80 -1 251 34 341 7 19 6 30 -2 38 -9 9 -7 16 9 29 12 9 38
51 59 92 21 41 46 86 56 99 11 13 19 33 19 44 0 11 3 17 7 13 8 -8 93 74 93
90 0 7 -6 15 -12 18 -7 3 -1 3 14 0 15 -3 47 2 71 11 24 9 63 15 87 13 96 -7
92 -85 -18 -455 -70 -231 -77 -264 -66 -285 7 -13 13 -30 14 -38 0 -9 5 -21
12 -28 8 -8 28 20 80 116 38 70 76 134 84 143 8 9 11 19 7 23 -5 4 -1 13 8 19
19 15 43 82 35 102 -3 8 -1 15 4 15 6 0 10 7 10 15 0 8 5 15 10 15 6 0 10 -9
10 -20 0 -26 24 -26 62 1 40 29 106 36 146 15 23 -12 32 -13 35 -3 3 6 6 0 6
-15 1 -18 6 -28 17 -28 10 0 14 6 10 18 -3 9 -12 49 -21 87 -25 114 -67 226
-82 221 -7 -3 -13 -1 -13 4 0 6 5 10 11 10 17 0 -40 95 -80 134 -21 20 -48 38
-61 41 -13 2 -26 9 -30 15 -9 14 -87 20 -141 10z"/>
<path d="M3635 3097 c-93 -23 -236 -220 -203 -280 10 -20 10 -21 -6 -8 -9 8
-16 10 -15 5 1 -5 -3 -22 -9 -37 -7 -16 -12 -36 -12 -46 0 -9 -4 -21 -9 -27
-5 -5 -22 -49 -37 -99 -21 -70 -27 -107 -25 -167 2 -62 -3 -92 -28 -167 -30
-90 -78 -193 -111 -241 -9 -14 -20 -37 -23 -52 -4 -14 -9 -32 -12 -40 -4 -9 8
-17 39 -26 24 -6 57 -23 74 -37 17 -14 33 -22 35 -18 13 23 77 280 73 296 -2
9 2 24 11 32 8 8 27 59 43 114 15 54 31 109 35 121 5 14 3 20 -3 16 -6 -4 -8
2 -5 15 3 11 9 16 12 10 4 -5 31 67 60 162 30 95 78 241 108 326 29 85 52 155
50 156 -1 1 -20 -3 -42 -8z"/>
<path d="M2554 2515 c6 -19 13 -30 14 -25 6 16 -7 60 -17 60 -4 0 -3 -16 3
-35z"/>
<path d="M858 2525 c-131 -48 -258 -201 -258 -311 0 -36 32 -79 66 -88 20 -6
22 -2 26 67 8 124 89 264 164 283 38 10 54 -2 54 -39 0 -35 -76 -298 -250
-862 -54 -176 -101 -337 -105 -359 -7 -36 -7 -38 13 -27 75 40 119 161 307
831 42 151 80 278 84 282 4 5 31 -155 60 -355 75 -510 105 -678 127 -712 18
-28 78 -60 93 -51 4 3 11 39 14 79 18 205 168 812 291 1175 26 75 31 102 21
102 -27 0 -73 -51 -93 -102 -55 -139 -174 -560 -230 -811 -44 -202 -36 -224
-98 262 -24 195 -51 388 -60 430 -40 192 -104 251 -226 206z"/>
<path d="M4359 2517 c-126 -108 -368 -577 -444 -857 -27 -102 -58 -160 -127
-235 -58 -64 -121 -93 -171 -79 -45 13 -59 46 -53 120 6 68 33 136 105 263 66
114 73 134 57 156 -18 25 -56 13 -99 -32 -43 -44 -85 -121 -121 -222 -33 -93
-82 -166 -157 -235 -73 -68 -122 -82 -152 -45 -24 29 -18 76 23 184 51 132 36
251 -36 281 -72 30 -144 5 -216 -74 -46 -52 -120 -186 -153 -277 -26 -72 -35
-76 -35 -18 0 74 18 196 40 265 16 52 28 69 97 133 90 84 162 183 227 311 79
158 102 267 72 339 -12 27 -21 35 -40 35 -104 0 -347 -442 -451 -820 -47 -170
-139 -326 -216 -365 -42 -22 -92 -19 -116 8 -25 27 -58 91 -67 132 -4 17 -9
37 -12 46 -3 13 5 18 37 23 94 15 182 83 195 151 25 136 -96 225 -223 164 -77
-37 -180 -179 -253 -349 -18 -41 -36 -79 -42 -85 -24 -25 28 247 71 374 24 67
37 91 63 111 212 160 353 417 307 560 -21 67 -47 66 -113 -2 -122 -126 -333
-551 -399 -805 -37 -143 -122 -269 -210 -312 -57 -28 -92 -27 -122 4 -21 20
-25 34 -25 79 0 72 27 144 106 282 67 117 78 158 44 169 -63 20 -149 -97 -214
-290 -69 -205 -37 -315 93 -315 96 0 196 60 259 155 l30 45 4 -89 c5 -98 15
-121 58 -121 38 0 51 20 94 140 77 212 161 342 243 377 48 19 96 10 123 -25
52 -66 -23 -165 -149 -195 l-53 -12 7 -53 c4 -30 15 -78 25 -107 36 -104 83
-142 164 -133 76 9 137 62 234 204 12 17 12 17 9 -8 -6 -41 12 -149 28 -175 9
-14 25 -23 40 -23 29 0 56 42 110 175 84 204 143 285 209 285 72 0 84 -67 40
-227 -31 -114 -27 -150 19 -189 28 -24 37 -26 89 -21 74 7 131 40 197 114 l51
57 0 -38 c0 -47 25 -103 57 -123 34 -22 135 -14 196 17 46 23 112 85 149 140
l17 25 1 -35 c1 -99 42 -159 113 -167 66 -8 122 16 184 80 65 65 159 217 141
228 -8 5 -22 -11 -43 -50 -92 -172 -190 -246 -255 -193 -21 17 -25 30 -28 91
-2 39 -1 96 3 127 6 51 12 60 76 127 101 104 190 233 267 387 109 217 139 349
98 428 -19 38 -41 40 -77 9z m38 -194 c-41 -158 -203 -449 -322 -578 -44 -48
-46 -49 -40 -20 10 50 94 253 153 370 62 124 166 291 191 305 31 17 36 -7 18
-77z m-1987 -8 c-27 -92 -144 -268 -211 -316 -16 -11 -29 -18 -29 -15 0 12
124 253 157 306 20 30 47 68 62 83 26 29 26 29 29 6 2 -13 -1 -41 -8 -64z
m756 13 c-23 -80 -90 -211 -161 -318 -64 -96 -135 -175 -135 -151 0 44 123
306 193 411 92 138 133 161 103 58z"/>
<path d="M2571 2430 c-3 -116 -54 -246 -144 -372 l-55 -76 59 -4 c45 -3 69
-11 101 -34 50 -35 94 -96 104 -144 l7 -35 10 31 c9 30 -30 381 -67 599 -12
70 -14 74 -15 35z"/>
<path d="M1824 2186 c-34 -15 -64 -51 -64 -77 0 -9 8 -23 18 -32 45 -41 144 1
150 61 6 59 -35 78 -104 48z"/>
<path d="M3782 2183 c-47 -23 -68 -57 -54 -88 22 -48 104 -45 146 6 61 72 -2
127 -92 82z"/>
<path d="M2020 2125 c0 -8 2 -15 4 -15 2 0 6 7 10 15 3 8 1 15 -4 15 -6 0 -10
-7 -10 -15z"/>
<path d="M1986 2045 c-9 -14 -13 -25 -8 -25 5 0 14 11 20 25 6 14 10 25 8 25
-2 0 -11 -11 -20 -25z"/>
<path d="M1928 1995 c-17 -12 -62 -161 -54 -180 2 -7 0 -15 -6 -17 -10 -4
-110 -308 -101 -308 2 0 21 27 42 60 34 52 46 85 66 175 4 17 63 181 93 255 8
22 7 26 -8 26 -10 0 -25 -5 -32 -11z"/>
<path d="M2550 1547 c-14 -13 -44 -32 -67 -43 -40 -17 -42 -21 -37 -49 4 -16
8 -32 11 -35 6 -6 73 66 73 79 0 6 4 11 8 11 4 0 16 14 25 30 22 36 20 37 -13
7z"/>
<path d="M2986 1340 c-14 -36 -127 -552 -123 -556 2 -3 17 0 32 6 16 6 34 9
41 6 7 -3 15 2 18 10 3 9 20 14 45 14 l39 0 17 78 c9 42 29 130 44 194 l28
118 -21 6 c-32 10 -77 55 -97 99 -12 27 -20 35 -23 25z"/>
<path d="M1805 1245 c-21 -13 -60 -30 -85 -36 l-46 -12 -54 -176 c-30 -97 -54
-184 -54 -193 0 -10 -4 -18 -8 -18 -4 0 -8 -8 -8 -17 0 -12 3 -14 8 -7 9 14
80 11 110 -5 37 -19 45 -47 22 -69 l-20 -19 20 -18 c19 -18 20 -17 22 1 0 10
1 25 1 32 -1 6 3 12 7 12 11 0 42 119 34 132 -4 6 -3 8 3 5 9 -6 53 126 56
169 1 11 5 21 8 24 4 3 17 44 31 91 23 80 24 88 9 107 l-16 21 -40 -24z"/>
<path d="M2596 1251 c-9 -10 -37 -29 -62 -42 -48 -26 -51 -37 -35 -114 5 -22
14 -81 21 -131 11 -82 15 -91 31 -87 11 3 26 0 34 -7 17 -14 20 -56 5 -65 -6
-4 -5 -13 3 -26 10 -16 14 -17 22 -6 15 21 124 28 158 10 27 -13 27 -13 22 9
-2 13 -14 93 -25 178 -28 213 -28 210 -54 210 -28 0 -63 25 -85 61 -17 28 -18
29 -35 10z"/>
<path d="M770 716 c0 -127 1 -135 21 -141 27 -9 39 4 16 16 -15 9 -17 27 -17
134 0 77 -4 125 -10 125 -6 0 -10 -51 -10 -134z"/>
<path d="M2540 835 c0 -8 7 -15 15 -15 8 0 15 7 15 15 0 8 -7 15 -15 15 -8 0
-15 -7 -15 -15z"/>
<path d="M4480 795 c0 -59 -3 -63 -26 -40 -23 22 -62 18 -89 -10 -33 -32 -35
-110 -4 -149 23 -30 68 -35 93 -11 19 19 26 19 26 0 0 -8 5 -15 10 -15 6 0 10
53 10 140 0 87 -4 140 -10 140 -5 0 -10 -25 -10 -55z m-20 -65 c39 -39 17
-140 -31 -140 -35 0 -58 19 -65 54 -15 82 46 136 96 86z"/>
<path d="M552 723 c-22 -65 -44 -126 -47 -135 -5 -13 -2 -18 9 -18 9 0 20 15
27 40 l12 40 57 0 57 0 12 -40 c7 -23 18 -40 26 -40 8 0 15 2 15 4 0 2 -21 63
-46 135 -60 171 -68 172 -122 14z m85 18 c12 -33 19 -62 16 -65 -4 -3 -23 -6
-43 -6 -20 0 -39 3 -43 6 -6 7 34 124 43 124 3 0 16 -27 27 -59z"/>
<path d="M1840 706 c0 -166 18 -185 22 -23 l3 112 44 -79 44 -78 43 78 44 79
0 -112 c0 -94 3 -113 15 -113 13 0 15 22 15 135 0 122 -2 135 -17 135 -12 0
-32 -27 -59 -77 l-41 -76 -39 74 c-22 42 -46 75 -56 77 -16 3 -18 -8 -18 -132z"/>
<path d="M3157 833 c-4 -3 -7 -64 -7 -135 0 -107 2 -128 15 -128 12 0 15 13
15 60 l0 60 60 0 c47 0 60 3 60 15 0 12 -13 15 -60 15 l-60 0 0 45 0 45 65 0
c51 0 65 3 65 15 0 12 -15 15 -73 15 -41 0 -77 -3 -80 -7z"/>
<path d="M2966 775 c-3 -8 -12 -12 -21 -9 -25 10 -64 -5 -81 -31 -14 -21 -14
-30 -4 -55 7 -17 18 -30 24 -30 6 0 3 -7 -8 -15 -13 -10 -17 -21 -12 -38 4
-16 0 -29 -9 -37 -41 -34 10 -75 85 -68 57 6 80 21 80 54 0 33 -36 54 -93 54
-41 0 -48 3 -45 18 2 12 16 19 46 23 23 3 47 10 54 17 12 12 14 56 3 90 -6 17
-3 22 9 22 9 0 16 5 16 10 0 16 -37 12 -44 -5z m-8 -37 c28 -28 7 -78 -33 -78
-27 0 -45 18 -45 45 0 27 18 45 45 45 12 0 26 -5 33 -12z m36 -183 c8 -22 -21
-45 -59 -45 -49 0 -65 9 -65 36 0 23 3 24 59 24 43 0 60 -4 65 -15z"/>
<path d="M2923 543 c9 -2 25 -2 35 0 9 3 1 5 -18 5 -19 0 -27 -2 -17 -5z"/>
<path d="M852 759 c3 -8 15 -53 28 -101 30 -113 49 -119 75 -20 10 37 21 71
25 75 4 4 17 -26 29 -68 16 -57 26 -75 39 -75 14 0 23 19 40 93 25 103 25 107
13 107 -5 0 -16 -33 -26 -72 -9 -40 -19 -80 -22 -88 -3 -8 -17 23 -32 69 -14
46 -31 86 -37 88 -7 2 -21 -31 -35 -81 -13 -47 -26 -83 -29 -80 -3 3 -14 40
-25 82 -11 41 -26 78 -34 80 -9 3 -12 0 -9 -9z"/>
<path d="M1178 759 c-10 -5 -18 -16 -18 -24 0 -11 5 -11 29 3 39 22 81 5 81
-33 0 -23 -4 -25 -41 -25 -59 0 -79 -14 -79 -55 0 -24 6 -38 19 -45 28 -14 67
-12 84 5 13 13 16 13 27 0 14 -17 40 -20 40 -5 0 6 -4 10 -9 10 -5 0 -11 31
-13 69 -2 50 -9 75 -22 90 -21 23 -69 28 -98 10z m92 -124 c0 -43 -70 -62 -90
-24 -16 30 4 49 51 49 35 0 39 -3 39 -25z"/>
<path d="M1342 759 c58 -155 69 -193 64 -215 -4 -13 -13 -24 -21 -24 -8 0 -15
-4 -15 -10 0 -18 39 -10 50 10 20 37 90 243 85 248 -10 10 -23 -13 -50 -91
-15 -43 -29 -76 -31 -74 -2 2 -16 38 -31 82 -15 43 -34 81 -42 83 -9 3 -12 0
-9 -9z"/>
<path d="M1568 759 c-12 -6 -18 -22 -18 -45 0 -36 11 -45 73 -59 33 -7 44 -29
27 -50 -16 -19 -50 -19 -77 0 -15 10 -24 12 -28 4 -11 -17 26 -38 67 -39 44 0
68 21 68 61 0 31 -14 41 -73 54 -34 7 -45 31 -23 53 14 14 21 15 48 4 38 -14
51 -6 24 14 -23 16 -63 18 -88 3z"/>
<path d="M2159 741 c-33 -34 -39 -83 -14 -130 25 -49 90 -57 130 -16 20 19 25
34 25 75 0 41 -5 56 -25 75 -34 35 -78 33 -116 -4z m94 -8 c23 -26 30 -65 17
-98 -18 -48 -57 -60 -92 -28 -28 25 -25 107 4 127 29 21 51 20 71 -1z"/>
<path d="M2330 768 c1 -2 16 -46 34 -98 45 -126 57 -126 102 -1 18 52 32 97
29 99 -11 11 -26 -15 -50 -88 -15 -44 -28 -80 -29 -80 -2 0 -16 38 -31 85 -17
50 -34 85 -42 85 -7 0 -13 -1 -13 -2z"/>
<path d="M2547 763 c-4 -3 -7 -48 -7 -100 0 -76 3 -93 15 -93 12 0 15 18 15
100 0 92 -5 112 -23 93z"/>
<path d="M2640 670 c0 -80 3 -100 14 -100 11 0 15 20 18 86 2 47 -1 92 -5 100
-19 34 -27 8 -27 -86z"/>
<path d="M2689 754 c-12 -15 -11 -16 8 -10 12 4 31 2 43 -4 18 -9 20 -20 20
-90 0 -64 3 -80 15 -80 12 0 15 16 15 80 0 67 -3 83 -20 100 -24 24 -63 26
-81 4z"/>
<path d="M3373 746 c-24 -21 -28 -32 -28 -74 0 -40 5 -56 24 -76 46 -49 121
-27 140 39 28 101 -63 174 -136 111z m97 -16 c13 -13 20 -33 20 -60 0 -70 -69
-108 -104 -58 -36 51 -8 138 44 138 11 0 29 -9 40 -20z"/>
<path d="M3570 670 c0 -80 3 -100 14 -100 11 0 15 19 18 78 4 97 0 122 -18
122 -11 0 -14 -20 -14 -100z"/>
<path d="M3633 760 c-33 -13 -28 -27 7 -22 17 2 30 10 30 18 0 16 -6 16 -37 4z"/>
<path d="M3700 753 c0 -10 11 -54 23 -98 29 -103 49 -110 71 -28 30 106 31
106 56 21 33 -110 49 -107 83 19 14 54 24 99 22 101 -12 12 -26 -18 -41 -89
-10 -44 -21 -76 -25 -72 -3 5 -17 43 -29 86 -13 43 -28 76 -34 74 -6 -2 -22
-41 -37 -88 l-26 -84 -11 40 c-6 22 -16 61 -23 88 -11 46 -29 65 -29 30z"/>
<path d="M4016 751 c-10 -11 -13 -22 -8 -25 5 -3 15 1 22 9 27 33 80 11 80
-32 0 -20 -5 -23 -38 -23 -69 0 -107 -54 -66 -94 20 -21 68 -20 89 1 16 16 18
16 27 0 10 -18 38 -23 38 -7 0 6 -4 10 -10 10 -6 0 -10 30 -10 70 0 57 -4 74
-20 90 -26 26 -81 26 -104 1z m94 -115 c0 -13 -6 -29 -14 -35 -21 -18 -70 -10
-74 12 -7 35 6 47 48 47 35 0 40 -3 40 -24z"/>
<path d="M4210 670 c0 -82 3 -100 15 -100 12 0 15 15 15 73 0 78 9 97 47 97
13 0 23 4 23 9 0 18 -16 20 -43 6 -22 -11 -26 -11 -31 1 -3 8 -10 14 -16 14
-6 0 -10 -38 -10 -100z"/>
<path d="M2603 670 c0 -47 2 -66 4 -42 2 23 2 61 0 85 -2 23 -4 4 -4 -43z"/>
<path d="M2697 714 c-4 -4 -7 -43 -7 -87 l0 -80 -51 6 -52 6 7 -57 c4 -31 17
-106 29 -167 18 -92 25 -110 39 -107 15 2 16 -1 8 -24 -9 -22 -6 -34 14 -68
13 -22 35 -51 48 -63 28 -26 99 -58 149 -67 l36 -6 7 97 c7 103 10 129 26 230
6 35 8 74 4 88 -4 15 -2 25 5 25 6 0 11 7 11 15 0 11 -13 15 -53 15 -64 0 -97
20 -97 58 0 26 -2 27 -39 24 -51 -5 -72 22 -69 93 l1 50 7 -55 7 -55 -1 64
c-1 59 -11 82 -29 65z"/>
<path d="M1502 643 c-14 -49 -27 -116 -24 -126 1 -5 -1 -6 -6 -3 -11 7 -160
-500 -150 -509 11 -8 71 20 104 50 21 20 33 33 25 29 -9 -4 -12 -2 -9 7 3 8
11 13 17 11 16 -3 73 89 67 111 -2 10 1 17 9 17 12 0 68 128 115 266 l18 50
-54 0 c-45 -1 -58 3 -80 26 -30 29 -27 56 7 65 l20 6 -20 18 c-11 11 -22 19
-24 19 -2 0 -9 -17 -15 -37z"/>
<path d="M2985 630 c-3 -5 -1 -10 4 -10 6 0 11 5 11 10 0 6 -2 10 -4 10 -3 0
-8 -4 -11 -10z"/>
<path d="M2821 594 c0 -11 3 -14 6 -6 3 7 2 16 -1 19 -3 4 -6 -2 -5 -13z"/>
</g>
</svg>
